<svg xmlns="http://www.w3.org/2000/svg" width="168.448" height="44.275" viewBox="0 0 168.448 44.275">
  <g id="Group_2908" data-name="Group 2908" transform="translate(-52 -61.885)">
    <g id="Logo" transform="translate(52 61.885)">
      <g id="Group_5" data-name="Group 5" transform="translate(-569.959 -254.815)">
        <g id="Group_4" data-name="Group 4" opacity="0.65">
          <path id="Path_1" data-name="Path 1" d="M590.981,259.448H569.959V280.47h9.14V268.588h11.882Z" fill="#03abec" opacity="0.65"/>
          <path id="Path_2" data-name="Path 2" d="M595.588,254.93H574.566v21.021h9.14V264.07h11.882Z" fill="#03abec" opacity="0.65"/>
        </g>
        <rect id="Rectangle_26" data-name="Rectangle 26" width="21.021" height="9.14" transform="translate(574.566 254.93)" fill="#00b1e8"/>
        <path id="Path_3" data-name="Path 3" d="M574.566,259.448v16.5H579.1v-7.363h4.607V264.07h7.275v-4.621H574.566Z" fill="#059bcc"/>
      </g>
      <g id="Group_2907" data-name="Group 2907" transform="translate(0 -1.764)">
        <g id="Group_6" data-name="Group 6" transform="translate(34.641 1.764)">
          <path id="Path_4" data-name="Path 4" d="M604.6,260.952l.089.006a10.125,10.125,0,0,1,1.292.214,6.048,6.048,0,0,1,1.285.408,1.448,1.448,0,0,1,.779.7,2.533,2.533,0,0,1,.191,1.014v18.43a2.254,2.254,0,0,1-.232,1.062,1.46,1.46,0,0,1-.738.651,4.306,4.306,0,0,1-1.138.2c-.6.054-1.08.093-1.439.116l-.089.006v1.463h11.262v-1.466l-.093,0a9.316,9.316,0,0,1-1.352-.2,6.431,6.431,0,0,1-1.146-.3,1.629,1.629,0,0,1-.786-.711,2.264,2.264,0,0,1-.223-1.018v-8.691h2.845a6.987,6.987,0,0,1,1.948.239,2.632,2.632,0,0,1,1.315.877,4.567,4.567,0,0,1,.66,1.427,7.939,7.939,0,0,1,.366,1.778l.006.089h1.536V267.013H619.4l-.009.087a7.309,7.309,0,0,1-.383,1.768,3.6,3.6,0,0,1-.639,1.2,3.145,3.145,0,0,1-1.226.83,6.03,6.03,0,0,1-2.041.273h-2.845V261.1h4.187c.644,0,1.226.012,1.733.037s.947.06,1.313.106a3.836,3.836,0,0,1,2.232,1.744,9.185,9.185,0,0,1,1.559,3.01l.02.071h1.52v-6.582H604.6Z" transform="translate(-604.6 -259.489)" fill="#fff"/>
          <path id="Path_5" data-name="Path 5" d="M626.907,263.129a2.237,2.237,0,0,0,1.738-.8,2.726,2.726,0,0,0,.7-1.854,2.375,2.375,0,0,0-.683-1.678,2.321,2.321,0,0,0-1.753-.723,2.191,2.191,0,0,0-1.663.77,2.581,2.581,0,0,0-.7,1.793,2.484,2.484,0,0,0,.7,1.73A2.2,2.2,0,0,0,626.907,263.129Z" transform="translate(-600.141 -257.544)" fill="#fff"/>
          <path id="Path_6" data-name="Path 6" d="M631.1,282.325a6,6,0,0,1-.759-.258,1.34,1.34,0,0,1-.711-.57,1.947,1.947,0,0,1-.229-1v-14.51l-.311-.311-6.4.4v1.367l.089.006a7.394,7.394,0,0,1,1.173.187,3.308,3.308,0,0,1,.957.354,2.261,2.261,0,0,1,.7.767,2.082,2.082,0,0,1,.248,1.006v10.947a1.933,1.933,0,0,1-.23,1,1.205,1.205,0,0,1-.694.524,3.149,3.149,0,0,1-.743.139c-.278.023-.548.045-.809.069-.032,0-.062,0-.094,0l-.59.007v1.372h9.309v-1.373l-.088-.006A4.682,4.682,0,0,1,631.1,282.325Z" transform="translate(-600.556 -258.105)" fill="#fff"/>
          <path id="Path_7" data-name="Path 7" d="M650.9,282.4a4.5,4.5,0,0,1-.731-.247,1.336,1.336,0,0,1-.691-.56,1.991,1.991,0,0,1-.2-.97v-9.233a6.859,6.859,0,0,0-1.254-4.3,4.6,4.6,0,0,0-3.864-1.631,7.058,7.058,0,0,0-2.1.292,6.6,6.6,0,0,0-1.608.732,9.455,9.455,0,0,0-1.236.991c-.4.37-.737.693-1.009.964v-2.4l-.311-.311-6.036.4V267.5l.089.006a7.276,7.276,0,0,1,.995.133,2.392,2.392,0,0,1,.775.3,2.154,2.154,0,0,1,.7.8,2.356,2.356,0,0,1,.25,1.08v10.947a1.947,1.947,0,0,1-.229,1,1.212,1.212,0,0,1-.7.524,3.15,3.15,0,0,1-.743.139c-.294.025-.579.048-.855.072l-.278.015v1.372l9.075-.007v-1.373l-.088-.006a7.4,7.4,0,0,1-.9-.125,3.457,3.457,0,0,1-.8-.264,1.53,1.53,0,0,1-.712-.575,1.756,1.756,0,0,1-.237-.956v-10.18a8.391,8.391,0,0,1,.5-.734,3.9,3.9,0,0,1,.925-.869,6.115,6.115,0,0,1,1.386-.717,4.873,4.873,0,0,1,1.715-.291,2.7,2.7,0,0,1,2.1.992,4.232,4.232,0,0,1,.87,2.853v9.125a1.946,1.946,0,0,1-.229,1,1.209,1.209,0,0,1-.7.525,3.314,3.314,0,0,1-.8.139c-.33.025-.635.048-.91.072l-.088.007v1.372h8.867v-1.374l-.089,0A5.737,5.737,0,0,1,650.9,282.4Z" transform="translate(-598.506 -258.154)" fill="#fff"/>
          <path id="Path_8" data-name="Path 8" d="M661.614,274.987a7.451,7.451,0,0,0-1.758-1.131,17.54,17.54,0,0,0-2.253-.886c-.8-.262-1.474-.5-2.02-.71a6.95,6.95,0,0,1-1.339-.664,2.415,2.415,0,0,1-.806-.883,2.83,2.83,0,0,1-.268-1.306,2.23,2.23,0,0,1,.812-1.723,3.325,3.325,0,0,1,2.259-.719,4.166,4.166,0,0,1,2.984,1.176,5.669,5.669,0,0,1,1.6,3.067l.016.077h1.421l-.279-5.9h-1.45l-.4.9a7.757,7.757,0,0,0-1.7-.607,8.985,8.985,0,0,0-2.156-.273,6.221,6.221,0,0,0-4.4,1.537,4.972,4.972,0,0,0-1.651,3.76,4.528,4.528,0,0,0,.516,2.206,5.181,5.181,0,0,0,1.32,1.577,7.653,7.653,0,0,0,1.795,1.047,18.165,18.165,0,0,0,1.89.7c.7.214,1.348.434,1.92.655a6.754,6.754,0,0,1,1.435.735,2.793,2.793,0,0,1,.846.93,2.621,2.621,0,0,1,.285,1.259,2.7,2.7,0,0,1-.9,2.182,3.95,3.95,0,0,1-2.6.765,4.41,4.41,0,0,1-2.158-.53,6.2,6.2,0,0,1-1.658-1.315,7.867,7.867,0,0,1-1.12-1.677,6.854,6.854,0,0,1-.6-1.62l-.016-.077h-1.418l0,6.279,0,.093,1.692-.007.339-1.1a8.752,8.752,0,0,0,1.775.951,7.975,7.975,0,0,0,7.731-1.023,5.157,5.157,0,0,0,1.879-4.1,4.99,4.99,0,0,0-.4-2.111A4.656,4.656,0,0,0,661.614,274.987Z" transform="translate(-594.505 -258.17)" fill="#fff"/>
          <path id="Path_9" data-name="Path 9" d="M673.177,282.721c-.575.053-1.018.079-1.314.079a3.608,3.608,0,0,1-1.506-.261,1.768,1.768,0,0,1-.821-.751,3.381,3.381,0,0,1-.376-1.269,17.593,17.593,0,0,1-.081-1.852v-9.82h5.427v-1.92h-5.462V261.4h-3.467v5.524H662.3v1.921h3.2v11.926a5.054,5.054,0,0,0,.93,3.238,3.936,3.936,0,0,0,3.215,1.16,8.634,8.634,0,0,0,2.585-.338c.695-.221,1.443-.5,2.221-.821l.06-.025v-1.514l-.128.044A5.747,5.747,0,0,1,673.177,282.721Z" transform="translate(-591.701 -259.061)" fill="#fff"/>
          <path id="Path_10" data-name="Path 10" d="M688.351,278.8a7.357,7.357,0,0,1-2.209,2.67,4.9,4.9,0,0,1-2.71.737,5.6,5.6,0,0,1-2.655-.593,4.958,4.958,0,0,1-1.8-1.619,7.552,7.552,0,0,1-1.039-2.477,13.8,13.8,0,0,1-.33-3.058h11.752v-1.284a10.552,10.552,0,0,0-.409-3,6.8,6.8,0,0,0-1.25-2.409,6.027,6.027,0,0,0-2.286-1.7,8.329,8.329,0,0,0-3.369-.62,7.476,7.476,0,0,0-3.455.793,7.943,7.943,0,0,0-2.577,2.086,9.723,9.723,0,0,0-1.627,3.027,10.928,10.928,0,0,0-.553,3.422,12.948,12.948,0,0,0,.516,3.682,8.854,8.854,0,0,0,1.573,3.056,7.522,7.522,0,0,0,2.689,2.079,8.9,8.9,0,0,0,3.793.765,7.651,7.651,0,0,0,4.355-1.276,9.233,9.233,0,0,0,3.02-3.419l.042-.079-1.422-.874Zm-6.34-11.79a3.012,3.012,0,0,1,1.8.5,3.576,3.576,0,0,1,1.1,1.31,6.49,6.49,0,0,1,.539,1.892,14.508,14.508,0,0,1,.17,2.043H677.61a7.182,7.182,0,0,1,1.334-4.214A3.782,3.782,0,0,1,682.01,267.007Z" transform="translate(-589.123 -258.157)" fill="#fff"/>
          <path id="Path_11" data-name="Path 11" d="M692.635,263.129a2.236,2.236,0,0,0,1.736-.8,2.727,2.727,0,0,0,.7-1.854,2.377,2.377,0,0,0-.684-1.678,2.32,2.32,0,0,0-1.752-.723,2.2,2.2,0,0,0-1.664.77,2.58,2.58,0,0,0-.7,1.793,2.483,2.483,0,0,0,.7,1.73A2.208,2.208,0,0,0,692.635,263.129Z" transform="translate(-585.448 -257.544)" fill="#fff"/>
          <path id="Path_12" data-name="Path 12" d="M696.824,282.325a5.947,5.947,0,0,1-.76-.258,1.346,1.346,0,0,1-.711-.57,1.96,1.96,0,0,1-.229-1v-14.51l-.31-.311-6.4.4v1.367l.089.006a7.379,7.379,0,0,1,1.172.187,3.279,3.279,0,0,1,.957.354,2.25,2.25,0,0,1,.7.767,2.07,2.07,0,0,1,.248,1.006v10.947a1.946,1.946,0,0,1-.229,1,1.208,1.208,0,0,1-.695.524,3.15,3.15,0,0,1-.741.139c-.295.024-.58.048-.857.072l-.6.007v1.372h9.27v-1.373l-.088-.006A4.666,4.666,0,0,1,696.824,282.325Z" transform="translate(-585.862 -258.105)" fill="#fff"/>
          <path id="Path_13" data-name="Path 13" d="M717.523,282.506a5.738,5.738,0,0,1-.858-.106,4.5,4.5,0,0,1-.731-.247,1.337,1.337,0,0,1-.691-.56,1.992,1.992,0,0,1-.2-.97v-9.233a6.859,6.859,0,0,0-1.254-4.3,4.6,4.6,0,0,0-3.864-1.631,7.059,7.059,0,0,0-2.1.292,6.6,6.6,0,0,0-1.608.732,9.546,9.546,0,0,0-1.237.991c-.4.37-.735.693-1.008.964v-2.4l-.311-.311-6.037.4V267.5l.089.006a7.269,7.269,0,0,1,1,.133,2.394,2.394,0,0,1,.774.3,2.14,2.14,0,0,1,.7.8,2.342,2.342,0,0,1,.251,1.08v10.947a1.945,1.945,0,0,1-.229,1,1.211,1.211,0,0,1-.7.524,3.147,3.147,0,0,1-.743.139l-.776.065c-.054,0-.106.007-.16.009l-.219,0v1.372l9.1,0v-1.373l-.088-.006a7.392,7.392,0,0,1-.9-.125,3.454,3.454,0,0,1-.8-.264,1.529,1.529,0,0,1-.712-.575,1.756,1.756,0,0,1-.237-.956v-10.18a8.116,8.116,0,0,1,.5-.734,3.9,3.9,0,0,1,.925-.869,6.112,6.112,0,0,1,1.386-.717,4.873,4.873,0,0,1,1.716-.291,2.7,2.7,0,0,1,2.1.992,4.232,4.232,0,0,1,.87,2.853v9.125a1.945,1.945,0,0,1-.229,1,1.209,1.209,0,0,1-.7.525,3.315,3.315,0,0,1-.8.139c-.33.025-.635.048-.91.072l-.088.007v1.372h8.867v-1.374Z" transform="translate(-583.807 -258.154)" fill="#fff"/>
        </g>
      </g>
      <path id="Path_6318" data-name="Path 6318" d="M1.927,0h-1V-7.267H5.34v.933H1.927V-4h3.1v.943h-3.1ZM7.37,0H6.417V-4.93H7.37ZM6.4-6.309A.663.663,0,0,1,6.2-6.8a.68.68,0,0,1,.2-.492.654.654,0,0,1,.487-.2.68.68,0,0,1,.492.2.666.666,0,0,1,.2.5.654.654,0,0,1-.2.487.68.68,0,0,1-.492.2A.663.663,0,0,1,6.4-6.309ZM9.973-2.85V0H9.01V-4.93h.943v.707a1.633,1.633,0,0,1,1.517-.851,1.611,1.611,0,0,1,1.307.543,2.11,2.11,0,0,1,.456,1.4V0h-.964V-2.962q0-1.24-1.148-1.24a1.015,1.015,0,0,0-.846.384A1.519,1.519,0,0,0,9.973-2.85Zm4.49,1.527a1.332,1.332,0,0,1,.41-1.02,1.921,1.921,0,0,1,1.087-.477l1.333-.195q.379-.051.379-.369a.825.825,0,0,0-.267-.635,1.143,1.143,0,0,0-.8-.246,1.087,1.087,0,0,0-.779.272,1.134,1.134,0,0,0-.338.723l-.923-.215a1.614,1.614,0,0,1,.646-1.153,2.172,2.172,0,0,1,1.373-.446,2.1,2.1,0,0,1,1.548.507,1.766,1.766,0,0,1,.5,1.3V-.81A4.94,4.94,0,0,0,18.7,0h-.943A4.059,4.059,0,0,1,17.7-.666a1.829,1.829,0,0,1-.6.574,1.838,1.838,0,0,1-.989.246,1.661,1.661,0,0,1-1.189-.436A1.382,1.382,0,0,1,14.463-1.322Zm1.784.666A1.5,1.5,0,0,0,17.281-1a1.416,1.416,0,0,0,.389-1.107v-.225l-1.507.225a.952.952,0,0,0-.523.236.659.659,0,0,0-.195.5.681.681,0,0,0,.22.5A.793.793,0,0,0,16.246-.656ZM21.095-2.85V0h-.964V-4.93h.943v.707a1.633,1.633,0,0,1,1.517-.851,1.611,1.611,0,0,1,1.307.543,2.11,2.11,0,0,1,.456,1.4V0h-.963V-2.962q0-1.24-1.148-1.24a1.015,1.015,0,0,0-.846.384A1.519,1.519,0,0,0,21.095-2.85Zm6.868-1.343a1.419,1.419,0,0,0-1.061.451,1.755,1.755,0,0,0-.436,1.271A1.777,1.777,0,0,0,26.9-1.2a1.416,1.416,0,0,0,1.071.461,1.309,1.309,0,0,0,.938-.308,1.546,1.546,0,0,0,.436-.707l.851.369a2.327,2.327,0,0,1-.774,1.076,2.229,2.229,0,0,1-1.45.461,2.35,2.35,0,0,1-1.784-.748,2.623,2.623,0,0,1-.707-1.876,2.6,2.6,0,0,1,.707-1.881,2.362,2.362,0,0,1,1.773-.733,2.22,2.22,0,0,1,1.461.461,2.138,2.138,0,0,1,.733,1.107l-.871.369a1.557,1.557,0,0,0-.431-.738A1.229,1.229,0,0,0,27.962-4.192ZM31.9-2.973h2.7a1.311,1.311,0,0,0-.369-.907,1.319,1.319,0,0,0-.984-.354,1.268,1.268,0,0,0-.943.374A1.341,1.341,0,0,0,31.9-2.973Zm2.839,1.281.83.287a2.183,2.183,0,0,1-.8,1.122,2.3,2.3,0,0,1-1.415.436A2.41,2.41,0,0,1,31.6-.559a2.576,2.576,0,0,1-.723-1.922,2.609,2.609,0,0,1,.7-1.865,2.207,2.207,0,0,1,1.661-.738,2.212,2.212,0,0,1,1.742.7A2.724,2.724,0,0,1,35.6-2.5a1.919,1.919,0,0,1-.021.307H31.867A1.482,1.482,0,0,0,32.3-1.117a1.436,1.436,0,0,0,1.051.42A1.332,1.332,0,0,0,34.737-1.691Zm6.56-.83H38.52v-.84H41.3ZM47.878.154A3.535,3.535,0,0,1,45.331-.871,3.669,3.669,0,0,1,44.27-3.639a3.884,3.884,0,0,1,.533-2.05A3.438,3.438,0,0,1,46.146-7a3.671,3.671,0,0,1,1.732-.425,3.414,3.414,0,0,1,2.076.62,2.936,2.936,0,0,1,1.122,1.686l-.933.328a2.2,2.2,0,0,0-.789-1.266A2.363,2.363,0,0,0,47.878-6.5a2.5,2.5,0,0,0-1.825.753,2.836,2.836,0,0,0-.758,2.106,2.854,2.854,0,0,0,.758,2.112,2.487,2.487,0,0,0,1.825.759,2.3,2.3,0,0,0,1.486-.477,2.488,2.488,0,0,0,.83-1.266l.892.328a3.132,3.132,0,0,1-1.143,1.7A3.321,3.321,0,0,1,47.878.154ZM53.392,2.06H52.337l1.23-2.6L51.445-4.93h1.107l1.538,3.4,1.476-3.4H56.6ZM58.476,0h-.953V-7.421h.953v3.188a1.545,1.545,0,0,1,.62-.6,2.016,2.016,0,0,1,1.01-.241,2.036,2.036,0,0,1,1.671.728,2.837,2.837,0,0,1,.595,1.855A2.851,2.851,0,0,1,61.756-.61a2.065,2.065,0,0,1-1.681.743,1.705,1.705,0,0,1-1.6-.851Zm2.511-1.21a1.942,1.942,0,0,0,.4-1.281,1.9,1.9,0,0,0-.395-1.266,1.318,1.318,0,0,0-1.061-.466,1.335,1.335,0,0,0-1.056.472,1.854,1.854,0,0,0-.41,1.261,1.914,1.914,0,0,0,.41,1.276,1.317,1.317,0,0,0,1.056.487A1.3,1.3,0,0,0,60.988-1.21Zm3.239-1.763h2.7a1.311,1.311,0,0,0-.369-.907,1.319,1.319,0,0,0-.984-.354,1.268,1.268,0,0,0-.943.374A1.341,1.341,0,0,0,64.227-2.973Zm2.839,1.281.83.287a2.183,2.183,0,0,1-.8,1.122,2.3,2.3,0,0,1-1.414.436,2.41,2.41,0,0,1-1.758-.712A2.576,2.576,0,0,1,63.2-2.481a2.609,2.609,0,0,1,.7-1.865,2.207,2.207,0,0,1,1.661-.738,2.212,2.212,0,0,1,1.743.7A2.724,2.724,0,0,1,67.927-2.5a1.919,1.919,0,0,1-.021.307H64.2a1.482,1.482,0,0,0,.436,1.076,1.436,1.436,0,0,0,1.051.42A1.332,1.332,0,0,0,67.066-1.691Zm4.828-3.29v1.025a2.97,2.97,0,0,0-.42-.031q-1.353,0-1.353,1.517V0h-.964V-4.93H70.1v.861a1.528,1.528,0,0,1,1.476-.943A1.616,1.616,0,0,1,71.894-4.982Zm5.494,2.46H74.61v-.84h2.778ZM85.854,0l-.789-2.03H81.846L81.078,0H80l2.891-7.267H84.05L86.941,0ZM83.445-6.222l-1.24,3.26h2.5ZM90.856-.595a1.261,1.261,0,0,1-.595.559,1.983,1.983,0,0,1-.861.19A1.717,1.717,0,0,1,88.058-.4a2.043,2.043,0,0,1-.5-1.42V-4.93h.963v2.962a1.469,1.469,0,0,0,.272.912.992.992,0,0,0,.846.359,1.09,1.09,0,0,0,.871-.343,1.353,1.353,0,0,0,.3-.917V-4.93h.964V-.912A7.724,7.724,0,0,0,91.82,0H90.9A3.455,3.455,0,0,1,90.856-.595ZM94.7-6.488V-4.93h1.066v.871H94.7V-1.5a.714.714,0,0,0,.159.513.713.713,0,0,0,.528.164,1.572,1.572,0,0,0,.379-.041v.82a1.912,1.912,0,0,1-.656.092,1.357,1.357,0,0,1-1-.369,1.4,1.4,0,0,1-.369-1.035V-4.059h-.943V-4.93h.266a.728.728,0,0,0,.569-.21.787.787,0,0,0,.19-.548v-.8Zm3.316,5.315a1.452,1.452,0,0,0,1.092.466,1.452,1.452,0,0,0,1.092-.466,1.8,1.8,0,0,0,.446-1.3,1.785,1.785,0,0,0-.446-1.286,1.452,1.452,0,0,0-1.092-.466,1.452,1.452,0,0,0-1.092.466A1.785,1.785,0,0,0,97.57-2.47,1.8,1.8,0,0,0,98.016-1.174ZM97.3-4.341a2.4,2.4,0,0,1,1.809-.743,2.4,2.4,0,0,1,1.809.743,2.6,2.6,0,0,1,.712,1.871,2.619,2.619,0,0,1-.707,1.881,2.394,2.394,0,0,1-1.814.743,2.394,2.394,0,0,1-1.814-.743,2.619,2.619,0,0,1-.707-1.881A2.6,2.6,0,0,1,97.3-4.341ZM103.812,0h-.953V-4.93h.923v.656a1.485,1.485,0,0,1,.635-.595,1.9,1.9,0,0,1,.861-.205,1.7,1.7,0,0,1,.882.236,1.425,1.425,0,0,1,.594.7,1.744,1.744,0,0,1,1.65-.933,1.667,1.667,0,0,1,1.2.482,1.853,1.853,0,0,1,.5,1.394V0h-.953V-3.1a1.224,1.224,0,0,0-.261-.82.972.972,0,0,0-.784-.308,1.052,1.052,0,0,0-.82.354,1.277,1.277,0,0,0-.318.887V0h-.964V-3.1a1.224,1.224,0,0,0-.261-.82.972.972,0,0,0-.784-.308,1.071,1.071,0,0,0-.83.349,1.287,1.287,0,0,0-.318.9Zm7.523-1.322a1.332,1.332,0,0,1,.41-1.02,1.921,1.921,0,0,1,1.087-.477l1.332-.195q.379-.051.379-.369a.825.825,0,0,0-.267-.635,1.143,1.143,0,0,0-.8-.246,1.087,1.087,0,0,0-.779.272,1.134,1.134,0,0,0-.338.723l-.923-.215a1.614,1.614,0,0,1,.646-1.153,2.172,2.172,0,0,1,1.373-.446,2.1,2.1,0,0,1,1.548.507,1.766,1.766,0,0,1,.5,1.3V-.81a4.939,4.939,0,0,0,.062.81h-.943a4.059,4.059,0,0,1-.051-.666,1.829,1.829,0,0,1-.6.574,1.838,1.838,0,0,1-.989.246A1.661,1.661,0,0,1,111.8-.282,1.382,1.382,0,0,1,111.336-1.322Zm1.784.666A1.5,1.5,0,0,0,114.154-1a1.416,1.416,0,0,0,.389-1.107v-.225l-1.507.225a.952.952,0,0,0-.523.236.659.659,0,0,0-.195.5.681.681,0,0,0,.22.5A.793.793,0,0,0,113.119-.656ZM118.3-6.488V-4.93h1.066v.871H118.3V-1.5a.714.714,0,0,0,.159.513.713.713,0,0,0,.528.164,1.572,1.572,0,0,0,.379-.041v.82a1.912,1.912,0,0,1-.656.092,1.357,1.357,0,0,1-1-.369,1.4,1.4,0,0,1-.369-1.035V-4.059h-.943V-4.93h.266a.728.728,0,0,0,.569-.21.787.787,0,0,0,.19-.548v-.8ZM121.6,0h-.953V-4.93h.953Zm-.969-6.309a.663.663,0,0,1-.2-.487.68.68,0,0,1,.2-.492.654.654,0,0,1,.487-.2.68.68,0,0,1,.492.2.666.666,0,0,1,.205.5.654.654,0,0,1-.205.487.68.68,0,0,1-.492.2A.663.663,0,0,1,120.627-6.309Zm3.628,5.135a1.452,1.452,0,0,0,1.092.466,1.452,1.452,0,0,0,1.092-.466,1.8,1.8,0,0,0,.446-1.3,1.785,1.785,0,0,0-.446-1.286,1.452,1.452,0,0,0-1.092-.466,1.452,1.452,0,0,0-1.092.466,1.785,1.785,0,0,0-.446,1.286A1.8,1.8,0,0,0,124.256-1.174Zm-.717-3.167a2.4,2.4,0,0,1,1.809-.743,2.4,2.4,0,0,1,1.809.743,2.6,2.6,0,0,1,.712,1.871,2.619,2.619,0,0,1-.707,1.881,2.394,2.394,0,0,1-1.814.743,2.394,2.394,0,0,1-1.814-.743,2.619,2.619,0,0,1-.707-1.881A2.6,2.6,0,0,1,123.538-4.341Zm6.524,1.491V0H129.1V-4.93h.943v.707a1.633,1.633,0,0,1,1.517-.851,1.611,1.611,0,0,1,1.307.543,2.11,2.11,0,0,1,.456,1.4V0h-.964V-2.962q0-1.24-1.148-1.24a1.015,1.015,0,0,0-.846.384A1.519,1.519,0,0,0,130.062-2.85Z" transform="translate(35 42.215)" fill="#fff"/>
    </g>
    <g id="Group_2856" data-name="Group 2856" transform="translate(-517.959 -192.93)">
      <g id="Group_4-2" data-name="Group 4" opacity="0.65">
        <path id="Path_1-2" data-name="Path 1" d="M590.981,259.448H569.959V280.47h9.14V268.588h11.882Z" fill="#03abec" opacity="0.65"/>
        <path id="Path_2-2" data-name="Path 2" d="M595.588,254.93H574.566v21.021h9.14V264.07h11.882Z" fill="#03abec" opacity="0.65"/>
      </g>
      <rect id="Rectangle_26-2" data-name="Rectangle 26" width="21.021" height="9.14" transform="translate(574.566 254.93)" fill="#00b1e8"/>
      <path id="Path_3-2" data-name="Path 3" d="M574.566,259.448v16.5H579.1v-7.363h4.607V264.07h7.275v-4.621H574.566Z" fill="#059bcc"/>
    </g>
  </g>
</svg>
